<svg width="200" height="73" viewBox="0 0 375 73" fill="none" xmlns="http://www.w3.org/2000/svg">
<path d="M21.2717 62.48C22.8077 61.856 24.8237 61.544 27.3197 61.544C29.8637 61.544 33.5837 62.48 38.4797 64.352C43.4237 66.272 46.7117 67.232 48.3437 67.232C50.6957 67.232 52.5917 65.84 54.0317 63.056L55.6877 63.776C53.5757 69.584 49.7117 72.488 44.0957 72.488C40.9277 72.488 35.5757 71.168 28.0397 68.528C20.5517 65.936 15.1277 64.64 11.7677 64.64L11.9837 63.56C17.2637 62.168 22.3757 59.984 27.3197 57.008C20.2637 56.72 14.6717 54.248 10.5437 49.592C6.41569 44.888 4.35169 38.96 4.35169 31.808C4.35169 24.608 6.53569 18.656 10.9037 13.952C15.2717 9.2 21.1517 6.824 28.5437 6.824C35.9357 6.824 41.7917 9.2 46.1117 13.952C50.4797 18.704 52.6637 24.584 52.6637 31.592C52.6637 38.6 50.7437 44.432 46.9037 49.088C43.1117 53.696 37.9517 56.312 31.4237 56.936C26.9117 59.576 23.5037 61.376 21.1997 62.336L21.2717 62.48ZM28.6157 54.848C38.7917 54.848 43.8797 47.216 43.8797 31.952C43.8797 24.56 42.7037 18.896 40.3517 14.96C38.0477 11.024 34.1117 9.056 28.5437 9.056C22.9757 9.056 19.0157 11.024 16.6637 14.96C14.3117 18.896 13.1357 24.56 13.1357 31.952C13.1357 47.216 18.2957 54.848 28.6157 54.848ZM74.0089 56.864C66.3289 56.864 62.4889 53.168 62.4889 45.776C62.4889 40.352 62.6569 32.816 62.9929 23.168L57.2329 22.88V21.224L70.0489 20.432C69.7129 33.104 69.5449 41.72 69.5449 46.28C69.5449 49.016 70.0489 51.056 71.0569 52.4C72.0649 53.744 73.7449 54.416 76.0969 54.416C78.4969 54.416 80.7529 53.096 82.8649 50.456C84.9769 47.768 86.0329 45.416 86.0329 43.4V23.168L80.0569 22.88V21.224L93.0889 20.432V53.768L99.2089 54.056L99.2809 55.712L86.3209 56.576L86.8249 48.8H85.9609C83.4649 54.176 79.4809 56.864 74.0089 56.864ZM115.222 9.128C115.222 10.28 114.814 11.288 113.998 12.152C113.182 12.968 112.15 13.376 110.902 13.376C109.702 13.376 108.694 12.968 107.878 12.152C107.062 11.336 106.654 10.328 106.654 9.128C106.654 7.88 107.062 6.848 107.878 6.032C108.694 5.168 109.702 4.736 110.902 4.736C112.102 4.736 113.11 5.168 113.926 6.032C114.79 6.896 115.222 7.928 115.222 9.128ZM102.982 56V54.272L107.734 53.912V23.312L101.398 23.096V21.44L114.79 20.504V53.912L119.542 54.272V56H102.982ZM142.722 20.072C145.41 20.072 148.002 20.648 150.498 21.8C151.89 22.424 152.994 23.384 153.81 24.68C154.674 25.976 155.106 27.488 155.106 29.216C155.106 30.944 154.338 32.12 152.802 32.744C152.178 32.984 151.506 33.104 150.786 33.104C150.114 33.104 149.418 32.864 148.698 32.384C148.89 31.376 148.986 30.2 148.986 28.856C148.986 27.464 148.554 26.144 147.69 24.896C146.442 23.024 144.666 22.088 142.362 22.088C135.69 22.088 132.354 27.584 132.354 38.576C132.354 43.952 133.122 48.008 134.658 50.744C136.242 53.432 138.786 54.776 142.29 54.776C146.754 54.776 150.33 52.616 153.018 48.296C154.074 48.632 154.602 49.16 154.602 49.88C154.602 50.552 154.146 51.416 153.234 52.472C152.37 53.48 150.834 54.464 148.626 55.424C146.466 56.336 143.97 56.792 141.138 56.792C136.194 56.792 132.186 55.112 129.114 51.752C126.09 48.392 124.578 43.952 124.578 38.432C124.578 32.912 126.21 28.472 129.474 25.112C132.786 21.752 137.202 20.072 142.722 20.072ZM181.948 20.864H196.06V22.52L190.732 23.888L176.98 35.696L192.964 53.768L197.788 54.272V56H180.724V54.272L184.756 53.912L171.364 38.144V53.912L175.828 54.272V56H159.628V54.272L164.308 53.912V4.304L157.972 4.016L157.9 2.36L171.364 0.847998V37.28L186.628 23.888L181.948 22.52V20.864ZM248.072 7.4C248.072 7.4 253.016 7.616 262.904 8.048L263.336 21.152H261.032L258.584 11.72C255.992 10.616 252.92 10.064 249.368 10.064C243.56 10.064 238.736 11.984 234.896 15.824C231.104 19.616 229.208 25.16 229.208 32.456C229.208 39.752 231.056 45.152 234.752 48.656C238.496 52.112 243.272 53.84 249.08 53.84C252.968 53.84 256.448 53.264 259.52 52.112L262.184 43.832L264.2 43.904L263.768 54.704C258.248 55.856 253.496 56.432 249.512 56.432C245.576 56.432 242.312 56.216 239.72 55.784C237.176 55.352 234.68 54.584 232.232 53.48C229.784 52.376 227.696 50.96 225.968 49.232C224.288 47.504 222.92 45.272 221.864 42.536C220.856 39.752 220.352 36.368 220.352 32.384C220.352 28.4 221.12 24.728 222.656 21.368C224.24 17.96 226.376 15.272 229.064 13.304C234.392 9.368 240.728 7.4 248.072 7.4ZM293.72 20.36C301.4 20.36 305.24 24.056 305.24 31.448C305.24 36.776 305.072 44.264 304.736 53.912L309.848 54.272V56H293.792V54.272L297.68 53.984C298.016 41.312 298.184 33.632 298.184 30.944C298.184 28.208 297.68 26.168 296.672 24.824C295.664 23.48 293.912 22.808 291.416 22.808C288.968 22.808 286.664 23.984 284.504 26.336C282.344 28.688 281.264 30.848 281.264 32.816V53.912L286.016 54.272V56H269.456V54.272L274.208 53.912V4.304L267.872 4.016L267.8 2.36L281.264 0.847998C280.976 17.312 280.808 26.096 280.76 27.2H281.336C282.632 24.992 284.36 23.312 286.52 22.16C288.728 20.96 291.128 20.36 293.72 20.36ZM321.256 48.224C321.256 51.344 322.528 53.192 325.072 53.768C325.648 53.912 326.2 53.984 326.728 53.984C328.552 53.984 330.448 53.216 332.416 51.68C334.384 50.096 335.416 47.984 335.512 45.344V39.152C326.008 39.248 321.256 42.272 321.256 48.224ZM324.136 56.864C321.4 56.864 319.048 56.12 317.08 54.632C315.16 53.096 314.2 50.96 314.2 48.224C314.248 44.528 316.096 41.768 319.744 39.944C323.44 38.12 328.696 37.208 335.512 37.208V31.016C335.512 24.92 333.304 21.872 328.888 21.872C326.632 21.872 324.808 22.808 323.416 24.68C322.456 25.976 321.976 27.584 321.976 29.504C321.976 30.32 322.072 31.184 322.264 32.096C321.592 32.576 320.896 32.816 320.176 32.816C319.504 32.816 318.832 32.672 318.16 32.384C316.624 31.808 315.856 30.704 315.856 29.072C315.856 26.864 316.648 25.04 318.232 23.6C320.824 21.248 324.4 20.072 328.96 20.072C333.52 20.072 336.832 21.056 338.896 23.024C340.96 24.944 341.992 27.992 341.992 32.168V53.984L348.04 54.272L348.112 55.928L336.088 56.792L335.44 50.384C333.232 54.704 329.464 56.864 324.136 56.864ZM373.218 48.512C373.218 48.656 373.194 48.824 373.146 49.016C372.378 51.368 371.082 53.264 369.258 54.704C367.482 56.096 365.394 56.792 362.994 56.792C360.594 56.792 358.578 56.12 356.946 54.776C355.362 53.384 354.57 50.696 354.57 46.712C354.57 45.608 354.69 37.616 354.93 22.736H349.962V20.864H355.002L355.074 10.28H362.13L361.914 20.864H372.21V22.736H361.914C361.674 38.24 361.554 47.312 361.554 49.952C361.554 53.168 362.61 54.776 364.722 54.776C366.018 54.776 367.362 54.032 368.754 52.544C370.194 51.056 371.202 49.376 371.778 47.504C372.738 47.504 373.218 47.84 373.218 48.512Z" fill="white"/>
<path d="M0.679688 63.2H374.298V66.8H0.679688V63.2Z" fill="white"/>
</svg>
